<?xml version="1.0" standalone="no"?>
<!DOCTYPE svg PUBLIC "-//W3C//DTD SVG 20010904//EN"
 "http://www.w3.org/TR/2001/REC-SVG-20010904/DTD/svg10.dtd">
<svg version="1.0" xmlns="http://www.w3.org/2000/svg"
 width="239.000000pt" height="210.000000pt" viewBox="0 0 239.000000 210.000000"
 preserveAspectRatio="xMidYMid meet">
<metadata>
Created by potrace 1.15, written by Peter Selinger 2001-2017
</metadata>
<g transform="translate(0.000000,210.000000) scale(0.100000,-0.100000)"
fill="#000000" stroke="none">
<path d="M0 1050 l0 -1050 1195 0 1195 0 0 1050 0 1050 -1195 0 -1195 0 0
-1050z m1783 985 c105 -18 227 -61 304 -106 83 -49 184 -152 219 -224 28 -57
29 -67 32 -224 4 -192 -9 -329 -74 -751 -61 -398 -73 -437 -166 -527 -134
-129 -354 -155 -691 -82 -55 13 -59 12 -112 -14 -30 -15 -55 -24 -55 -21 0 3
7 18 15 34 9 18 13 40 9 55 -8 30 -4 31 47 4 35 -18 59 -20 168 -20 295 1 483
84 531 235 20 63 8 165 -29 241 -39 78 -115 159 -173 185 -46 20 -170 40 -247
40 l-47 0 -28 153 c-35 188 -32 179 -53 175 -23 -5 -21 -22 23 -251 35 -184
43 -290 22 -303 -6 -4 -13 -3 -15 2 -22 65 -284 484 -303 484 -29 0 -15 -37
53 -141 l74 -114 -399 -8 c-220 -5 -404 -5 -408 0 -5 4 89 53 208 108 230 106
270 130 258 160 -9 26 -50 19 -412 -69 -171 -42 -320 -76 -332 -76 -26 0 -68
50 -99 117 -43 93 -55 192 -51 421 l3 208 33 66 c56 114 169 200 314 238 68
18 115 19 684 19 498 1 627 -2 697 -14z"/>
<path d="M445 1278 c-21 -25 -25 -38 -21 -62 18 -87 131 -101 168 -21 24 53
-20 115 -83 115 -30 0 -43 -7 -64 -32z"/>
</g>
</svg>
